<svg width="1440" height="220" viewBox="0 0 1440 220" fill="none" xmlns="http://www.w3.org/2000/svg">
<g clip-path="url(#clip0_1_8)">
<path d="M1440 22L1380 47.7C1320 73 1200 125 1080 139.3C960 154 840 132 720 124.7C600 117 480 125 360 113.7C240 103 120 73 0 73.3C-120 73 -240 103 -360 124.7C-480 147 -600 161 -720 143C-840 125 -960 73 -1080 66C-1200 59 -1320 95 -1440 117.3C-1560 139 -1680 147 -1800 146.7C-1920 147 -2040 139 -2160 117.3C-2280 95 -2400 59 -2520 69.7C-2640 81 -2760 139 -2880 143C-3000 147 -3120 95 -3240 91.7C-3360 88 -3480 132 -3600 135.7C-3720 139 -3840 103 -3960 95.3C-4080 88 -4200 110 -4320 121C-4440 132 -4560 132 -4680 128.3C-4800 125 -4920 117 -5040 99C-5160 81 -5280 51 -5400 66C-5520 81 -5640 139 -5760 165C-5880 191 -6000 183 -6120 183.3C-6240 183 -6360 191 -6480 172.3C-6600 154 -6720 110 -6840 113.7C-6960 117 -7080 169 -7140 194.3L-7200 220V0L1440 0V22Z" fill="url(#paint0_linear_1_8)"/>
<path opacity="0.9" d="M1440 65.9999L1380 80.6999C1320 94.9999 1200 125 1080 139.3C960 154 840 154 720 139.3C600 125 480 94.9999 360 106.3C240 117 120 169 0 176C-120 183 -240 147 -360 146.7C-480 147 -600 183 -720 187C-840 191 -960 161 -1080 128.3C-1200 94.9999 -1320 58.9999 -1440 43.9999C-1560 28.9999 -1680 36.9999 -1800 69.6999C-1920 103 -2040 161 -2160 172.3C-2280 183 -2400 147 -2520 128.3C-2640 110 -2760 110 -2880 124.7C-3000 139 -3120 169 -3240 157.7C-3360 147 -3480 94.9999 -3600 91.6999C-3720 87.9999 -3840 132 -3960 157.7C-4080 183 -4200 191 -4320 198C-4440 205 -4560 213 -4680 212.7C-4800 213 -4920 205 -5040 179.7C-5160 154 -5280 110 -5400 84.2999C-5520 58.9999 -5640 50.9999 -5760 76.9999C-5880 103 -6000 161 -6120 157.7C-6240 154 -6360 87.9999 -6480 54.9999C-6600 21.9999 -6720 21.9999 -6840 21.9999L-7200 21.9999V-6.10352e-05L1440 -6.10352e-05V65.9999Z" fill="url(#paint1_linear_1_8)"/>
<path d="M744.754 56.3203C745.504 56.3203 746.16 56.4961 746.723 56.8477C747.285 57.1914 747.762 57.668 748.152 58.2773C748.551 58.8789 748.859 59.5742 749.078 60.3633C749.305 61.1445 749.441 61.9727 749.488 62.8477H750.461V66H749.277C749.004 67.1328 748.543 68.1172 747.895 68.9531C747.246 69.7969 746.391 70.5 745.328 71.0625C744.266 71.6328 742.965 72.0664 741.426 72.3633L740.359 69.4805C741.383 69.2773 742.312 69.0117 743.148 68.6836C743.992 68.3633 744.699 67.9766 745.27 67.5234C745.84 67.0703 746.223 66.5625 746.418 66H745.176C743.613 66 742.426 65.6758 741.613 65.0273C740.801 64.3789 740.395 63.3438 740.395 61.9219C740.395 61.3359 740.48 60.7188 740.652 60.0703C740.832 59.4219 741.102 58.8125 741.461 58.2422C741.82 57.6719 742.273 57.2109 742.82 56.8594C743.367 56.5 744.012 56.3203 744.754 56.3203ZM745.141 62.8477H746.746C746.715 62.4414 746.652 62.0352 746.559 61.6289C746.465 61.2227 746.336 60.8555 746.172 60.5273C746.016 60.1914 745.816 59.9258 745.574 59.7305C745.34 59.5273 745.059 59.4258 744.73 59.4258C744.34 59.4258 744.027 59.5664 743.793 59.8477C743.566 60.1211 743.406 60.4453 743.312 60.8203C743.219 61.1875 743.172 61.5156 743.172 61.8047C743.172 62.2422 743.348 62.5273 743.699 62.6602C744.051 62.7852 744.531 62.8477 745.141 62.8477ZM753.988 55.0664C754.59 55.4414 755.137 55.793 755.629 56.1211C756.121 56.4492 756.562 56.7734 756.953 57.0938C757.352 57.4062 757.707 57.7305 758.02 58.0664C758.332 58.4023 758.609 58.7617 758.852 59.1445C759.094 59.5273 759.309 59.9531 759.496 60.4219C759.738 61.0078 759.973 61.4805 760.199 61.8398C760.426 62.1914 760.711 62.4492 761.055 62.6133C761.398 62.7695 761.852 62.8477 762.414 62.8477H762.742V66H762.414C761.492 66 760.711 65.8555 760.07 65.5664C759.438 65.2773 758.895 64.8008 758.441 64.1367C758.059 64.5898 757.629 64.9531 757.152 65.2266C756.684 65.5 756.109 65.6992 755.43 65.8242C754.75 65.9414 753.898 66 752.875 66H750.039V62.8477H752.863C753.73 62.8477 754.445 62.8086 755.008 62.7305C755.578 62.6445 756.004 62.4961 756.285 62.2852C756.566 62.0742 756.707 61.7695 756.707 61.3711C756.707 61.1289 756.582 60.8633 756.332 60.5742C756.082 60.2852 755.754 59.9844 755.348 59.6719C754.941 59.3594 754.496 59.0469 754.012 58.7344C753.535 58.4219 753.059 58.1133 752.582 57.8086C752.113 57.5039 751.691 57.2148 751.316 56.9414C751.012 56.6992 750.773 56.4023 750.602 56.0508C750.438 55.6914 750.355 55.3164 750.355 54.9258C750.355 54.4961 750.457 54.1016 750.66 53.7422C750.871 53.3828 751.18 53.1211 751.586 52.957L760.516 49.3125V52.418L753.988 55.0664ZM762.25 62.8477H763.188V66H762.25V62.8477ZM764.488 70.207L766.316 72.0352L764.488 73.8633L762.66 72.0352L764.488 70.207ZM766.527 67.2188L768.355 69.0469L766.527 70.875L764.699 69.0469L766.527 67.2188ZM762.449 67.2188L764.277 69.0469L762.449 70.875L760.621 69.0469L762.449 67.2188ZM764.219 66H762.918V62.8477H764.195C764.953 62.8477 765.508 62.7109 765.859 62.4375C766.219 62.1562 766.398 61.6445 766.398 60.9023C766.398 60.4727 766.352 59.9141 766.258 59.2266C766.172 58.5391 766.02 57.7734 765.801 56.9297L768.637 56.168C768.832 56.9336 768.977 57.6875 769.07 58.4297C769.172 59.1641 769.223 59.8672 769.223 60.5391C769.223 61.6328 769.066 62.5898 768.754 63.4102C768.441 64.2227 767.922 64.8594 767.195 65.3203C766.469 65.7734 765.477 66 764.219 66ZM771.836 49.5117H774.801V60.4336C774.801 61.3164 774.934 61.9414 775.199 62.3086C775.465 62.668 775.984 62.8477 776.758 62.8477H777.039V66H776.758C775.062 66 773.816 65.5586 773.02 64.6758C772.23 63.793 771.836 62.4531 771.836 60.6562V49.5117ZM784.645 66C783.832 66 783.16 65.8633 782.629 65.5898C782.105 65.3086 781.68 64.9336 781.352 64.4648C780.93 64.9414 780.406 65.3164 779.781 65.5898C779.156 65.8633 778.375 66 777.438 66H776.617V62.8477H777.461C778.344 62.8477 778.996 62.6875 779.418 62.3672C779.84 62.0391 780.051 61.4531 780.051 60.6094C780.051 60.4844 780.043 60.2969 780.027 60.0469C780.012 59.7969 779.992 59.5156 779.969 59.2031C779.953 58.8906 779.934 58.5859 779.91 58.2891L782.652 57.9492L782.898 60.9258C782.922 61.2852 783 61.6133 783.133 61.9102C783.273 62.1992 783.469 62.4297 783.719 62.6016C783.977 62.7656 784.293 62.8477 784.668 62.8477C785.355 62.8477 785.844 62.6562 786.133 62.2734C786.422 61.8828 786.566 61.3281 786.566 60.6094C786.566 60.4922 786.559 60.3086 786.543 60.0586C786.535 59.8008 786.52 59.5156 786.496 59.2031C786.473 58.8906 786.449 58.5859 786.426 58.2891L789.168 57.9492L789.414 60.9258C789.438 61.2617 789.504 61.5781 789.613 61.875C789.723 62.1719 789.887 62.4102 790.105 62.5898C790.332 62.7617 790.621 62.8477 790.973 62.8477C791.301 62.8477 791.562 62.7539 791.758 62.5664C791.953 62.3711 792.094 62.1172 792.18 61.8047C792.266 61.4844 792.309 61.1367 792.309 60.7617C792.309 60.2305 792.242 59.625 792.109 58.9453C791.977 58.2578 791.836 57.6172 791.688 57.0234L794.523 56.2734C794.711 56.9688 794.855 57.668 794.957 58.3711C795.059 59.0664 795.109 59.7617 795.109 60.457C795.109 61.457 794.98 62.3789 794.723 63.2227C794.465 64.0586 794.039 64.7305 793.445 65.2383C792.852 65.7383 792.039 65.9922 791.008 66C790.289 66 789.684 65.8555 789.191 65.5664C788.699 65.2695 788.293 64.8945 787.973 64.4414C787.566 64.9102 787.078 65.2891 786.508 65.5781C785.938 65.8594 785.316 66 784.645 66ZM814.902 66H812.418C811.043 66 809.789 65.8984 808.656 65.6953C807.523 65.4844 806.547 65.1445 805.727 64.6758C804.906 64.207 804.273 63.582 803.828 62.8008C803.383 62.0195 803.16 61.0547 803.16 59.9062C803.16 59.2344 803.234 58.582 803.383 57.9492C803.539 57.3086 803.73 56.7109 803.957 56.1562L806.582 57.1406C806.449 57.5078 806.32 57.9258 806.195 58.3945C806.07 58.8555 806.008 59.3008 806.008 59.7305C806.008 60.3555 806.168 60.8711 806.488 61.2773C806.816 61.6758 807.27 61.9922 807.848 62.2266C808.434 62.4531 809.113 62.6133 809.887 62.707C810.668 62.8008 811.512 62.8477 812.418 62.8477H814.926C815.52 62.8477 816.102 62.8281 816.672 62.7891C817.25 62.7422 817.773 62.6523 818.242 62.5195C818.719 62.3867 819.098 62.1875 819.379 61.9219C819.66 61.6562 819.801 61.3008 819.801 60.8555C819.801 60.5039 819.75 59.9609 819.648 59.2266C819.547 58.4922 819.395 57.7266 819.191 56.9297L822.027 56.1797C822.152 56.5625 822.258 57.0234 822.344 57.5625C822.438 58.1016 822.508 58.6367 822.555 59.168C822.602 59.6914 822.625 60.1406 822.625 60.5156C822.625 61.6719 822.422 62.6094 822.016 63.3281C821.609 64.0469 821.047 64.6016 820.328 64.9922C819.617 65.375 818.797 65.6406 817.867 65.7891C816.938 65.9297 815.949 66 814.902 66ZM814.961 53.4141L816.895 55.3359L814.961 57.2812L813.027 55.3359L814.961 53.4141ZM811 53.4141L812.957 55.3359L811 57.2812L809.09 55.3359L811 53.4141ZM825.25 49.5117H828.215V60.4336C828.215 61.3164 828.348 61.9414 828.613 62.3086C828.879 62.668 829.398 62.8477 830.172 62.8477H830.453V66H830.172C828.477 66 827.23 65.5586 826.434 64.6758C825.645 63.793 825.25 62.4531 825.25 60.6562V49.5117ZM838.387 50.0156L840.32 51.9375L838.387 53.8828L836.453 51.9375L838.387 50.0156ZM834.426 50.0156L836.383 51.9375L834.426 53.8828L832.516 51.9375L834.426 50.0156ZM836.57 58.2422C836.336 58.2422 836.082 58.3398 835.809 58.5352C835.535 58.7227 835.301 58.9531 835.105 59.2266C834.918 59.5 834.824 59.7656 834.824 60.0234C834.824 60.3281 834.922 60.6328 835.117 60.9375C835.312 61.2344 835.547 61.5039 835.82 61.7461C836.102 61.9883 836.359 62.1719 836.594 62.2969C836.867 62.1562 837.141 61.9688 837.414 61.7344C837.695 61.4922 837.926 61.2227 838.105 60.9258C838.293 60.6211 838.387 60.3125 838.387 60C838.387 59.7422 838.285 59.4805 838.082 59.2148C837.879 58.9414 837.637 58.7109 837.355 58.5234C837.082 58.3359 836.82 58.2422 836.57 58.2422ZM841.188 60C841.188 60.3516 841.148 60.6875 841.07 61.0078C840.992 61.3203 840.875 61.6289 840.719 61.9336C840.57 62.2305 840.383 62.5312 840.156 62.8359C840.312 62.8438 840.457 62.8477 840.59 62.8477C840.723 62.8477 840.848 62.8477 840.965 62.8477C841.082 62.8477 841.191 62.8477 841.293 62.8477H842.406V66H840.918C840.512 66 840.062 65.9609 839.57 65.8828C839.078 65.7969 838.574 65.6875 838.059 65.5547C837.543 65.4141 837.043 65.2617 836.559 65.0977C836.066 65.2695 835.555 65.4258 835.023 65.5664C834.492 65.6992 833.969 65.8047 833.453 65.8828C832.945 65.9609 832.477 66 832.047 66H830.031V62.8477H831.73C831.871 62.8477 832.004 62.8477 832.129 62.8477C832.262 62.8477 832.398 62.8477 832.539 62.8477C832.688 62.8398 832.852 62.832 833.031 62.8242C832.812 62.5195 832.625 62.2148 832.469 61.9102C832.32 61.6055 832.207 61.293 832.129 60.9727C832.059 60.6523 832.023 60.3203 832.023 59.9766C832.023 59.3828 832.148 58.8047 832.398 58.2422C832.656 57.6797 833 57.1719 833.43 56.7188C833.859 56.2578 834.344 55.8945 834.883 55.6289C835.43 55.3555 835.988 55.2188 836.559 55.2188C837.145 55.2188 837.715 55.3555 838.27 55.6289C838.824 55.8945 839.32 56.2539 839.758 56.707C840.195 57.1602 840.543 57.6719 840.801 58.2422C841.059 58.8047 841.188 59.3906 841.188 60ZM852.18 58.6992C851.727 58.6992 851.266 58.8086 850.797 59.0273C850.336 59.2461 849.879 59.5469 849.426 59.9297C848.973 60.3125 848.535 60.7539 848.113 61.2539C847.691 61.7539 847.289 62.2852 846.906 62.8477H848.137C848.988 62.8477 849.781 62.8164 850.516 62.7539C851.25 62.6914 851.895 62.5781 852.449 62.4141C853.004 62.2422 853.434 62.0117 853.738 61.7227C854.043 61.4258 854.195 61.0508 854.195 60.5977C854.195 60.0273 854.004 59.5703 853.621 59.2266C853.246 58.875 852.766 58.6992 852.18 58.6992ZM852.109 55.6055C853.078 55.6055 853.934 55.8125 854.676 56.2266C855.426 56.6328 856.012 57.1992 856.434 57.9258C856.863 58.6445 857.078 59.4648 857.078 60.3867C857.078 60.7617 857.031 61.1719 856.938 61.6172C856.852 62.0625 856.711 62.4375 856.516 62.7422C856.641 62.7656 856.781 62.7852 856.938 62.8008C857.102 62.8164 857.293 62.8281 857.512 62.8359C857.73 62.8438 857.984 62.8477 858.273 62.8477H858.613V66H858.285C857.34 66 856.535 65.8828 855.871 65.6484C855.215 65.4062 854.645 65.1133 854.16 64.7695C853.379 65.1367 852.465 65.4336 851.418 65.6602C850.379 65.8867 849.25 66 848.031 66H841.984V62.8477H843.695C843.812 62.6602 843.926 62.4844 844.035 62.3203C844.145 62.1484 844.262 61.9727 844.387 61.793V49.5117H847.352V58.0195C847.727 57.6367 848.098 57.2969 848.465 57C848.84 56.7031 849.219 56.4531 849.602 56.25C849.992 56.0391 850.395 55.8789 850.809 55.7695C851.223 55.6602 851.656 55.6055 852.109 55.6055ZM865.492 47.4023L867.426 49.3242L865.492 51.2695L863.559 49.3242L865.492 47.4023ZM861.531 47.4023L863.488 49.3242L861.531 51.2695L859.621 49.3242L861.531 47.4023ZM863.875 58.7578C864.188 58.7578 864.5 58.7383 864.812 58.6992C865.125 58.6602 865.434 58.6055 865.738 58.5352C865.691 58.2305 865.617 57.9062 865.516 57.5625C865.422 57.2188 865.297 56.8984 865.141 56.6016C864.984 56.3047 864.797 56.0625 864.578 55.875C864.359 55.6875 864.098 55.5938 863.793 55.5938C863.441 55.5938 863.145 55.7109 862.902 55.9453C862.66 56.1719 862.48 56.4492 862.363 56.7773C862.246 57.1055 862.188 57.4258 862.188 57.7383C862.188 58.1758 862.348 58.457 862.668 58.582C862.988 58.6992 863.391 58.7578 863.875 58.7578ZM862.609 62.8477C863.32 62.8477 863.91 62.8125 864.379 62.7422C864.848 62.6719 865.203 62.5273 865.445 62.3086C865.695 62.082 865.82 61.7305 865.82 61.2539C865.523 61.3242 865.211 61.3789 864.883 61.418C864.555 61.4492 864.223 61.4648 863.887 61.4648C862.52 61.4648 861.445 61.1797 860.664 60.6094C859.883 60.0391 859.492 59.125 859.492 57.8672C859.492 57.2422 859.59 56.6172 859.785 55.9922C859.98 55.3672 860.266 54.7969 860.641 54.2812C861.016 53.7578 861.469 53.3398 862 53.0273C862.539 52.7148 863.145 52.5586 863.816 52.5586C864.699 52.5586 865.441 52.7773 866.043 53.2148C866.652 53.6445 867.145 54.2227 867.52 54.9492C867.902 55.6758 868.18 56.4883 868.352 57.3867C868.523 58.2852 868.609 59.1953 868.609 60.1172C868.609 61.3203 868.488 62.3086 868.246 63.082C868.004 63.8477 867.633 64.4453 867.133 64.875C866.641 65.2969 866.008 65.5898 865.234 65.7539C864.461 65.918 863.539 66 862.469 66H858.18V62.8477H862.609ZM883.973 72.0234C882.285 72.0234 880.902 71.7031 879.824 71.0625C878.754 70.4297 877.961 69.5664 877.445 68.4727C876.938 67.3867 876.684 66.1602 876.684 64.793C876.684 64.0195 876.762 63.1914 876.918 62.3086C877.082 61.418 877.348 60.4844 877.715 59.5078L880.375 60.5273C880.094 61.3555 879.879 62.1172 879.73 62.8125C879.59 63.5078 879.52 64.1367 879.52 64.6992C879.52 65.4648 879.652 66.168 879.918 66.8086C880.191 67.4492 880.652 67.9609 881.301 68.3438C881.949 68.7266 882.84 68.918 883.973 68.918C885.199 68.918 886.195 68.7852 886.961 68.5195C887.734 68.2539 888.301 67.9531 888.66 67.6172C889.02 67.2812 889.199 67.0078 889.199 66.7969C889.199 66.5078 889.059 66.3008 888.777 66.1758C888.504 66.0586 888.066 66 887.465 66H885.648C885.352 66 885.16 65.9219 885.074 65.7656C884.996 65.6094 884.918 65.3984 884.84 65.1328L884.383 63.4453C884.32 63.25 884.309 63.1055 884.348 63.0117C884.387 62.9102 884.523 62.8594 884.758 62.8594H891.695V66C891.758 66.1719 891.797 66.3125 891.812 66.4219C891.828 66.5312 891.836 66.6523 891.836 66.7852C891.836 67.4648 891.664 68.1172 891.32 68.7422C890.977 69.375 890.469 69.9375 889.797 70.4297C889.125 70.9219 888.301 71.3086 887.324 71.5898C886.348 71.8789 885.23 72.0234 883.973 72.0234ZM895.223 55.0664C895.824 55.4414 896.371 55.793 896.863 56.1211C897.355 56.4492 897.797 56.7734 898.188 57.0938C898.586 57.4062 898.941 57.7305 899.254 58.0664C899.566 58.4023 899.844 58.7617 900.086 59.1445C900.328 59.5273 900.543 59.9531 900.73 60.4219C900.973 61.0078 901.207 61.4805 901.434 61.8398C901.66 62.1914 901.945 62.4492 902.289 62.6133C902.633 62.7695 903.086 62.8477 903.648 62.8477H903.977V66H903.648C902.727 66 901.945 65.8555 901.305 65.5664C900.672 65.2773 900.129 64.8008 899.676 64.1367C899.293 64.5898 898.863 64.9531 898.387 65.2266C897.918 65.5 897.344 65.6992 896.664 65.8242C895.984 65.9414 895.133 66 894.109 66H891.273V62.8477H894.098C894.965 62.8477 895.68 62.8086 896.242 62.7305C896.812 62.6445 897.238 62.4961 897.52 62.2852C897.801 62.0742 897.941 61.7695 897.941 61.3711C897.941 61.1289 897.816 60.8633 897.566 60.5742C897.316 60.2852 896.988 59.9844 896.582 59.6719C896.176 59.3594 895.73 59.0469 895.246 58.7344C894.77 58.4219 894.293 58.1133 893.816 57.8086C893.348 57.5039 892.926 57.2148 892.551 56.9414C892.246 56.6992 892.008 56.4023 891.836 56.0508C891.672 55.6914 891.59 55.3164 891.59 54.9258C891.59 54.4961 891.691 54.1016 891.895 53.7422C892.105 53.3828 892.414 53.1211 892.82 52.957L901.75 49.3125V52.418L895.223 55.0664ZM903.484 62.8477H904.422V66H903.484V62.8477ZM907.75 67.5703L909.684 69.4922L907.75 71.4375L905.816 69.4922L907.75 67.5703ZM903.789 67.5703L905.746 69.4922L903.789 71.4375L901.879 69.4922L903.789 67.5703ZM907.492 57.9258L910.234 57.5977L910.469 60.832C910.492 61.2383 910.574 61.5938 910.715 61.8984C910.863 62.2031 911.078 62.4375 911.359 62.6016C911.641 62.7656 912 62.8477 912.438 62.8477H912.672V66H912.414C911.883 66 911.406 65.9336 910.984 65.8008C910.562 65.668 910.191 65.4844 909.871 65.25C909.551 65.0156 909.273 64.7422 909.039 64.4297C908.578 64.9297 908.016 65.3164 907.352 65.5898C906.695 65.8633 905.996 66 905.254 66H904.141V62.8477H905.254C906.137 62.8477 906.75 62.6484 907.094 62.25C907.438 61.8516 907.609 61.2461 907.609 60.4336C907.609 59.9961 907.598 59.5703 907.574 59.1562C907.559 58.7344 907.531 58.3242 907.492 57.9258ZM913.539 66H912.238V62.8477H913.516C914.273 62.8477 914.828 62.7109 915.18 62.4375C915.539 62.1562 915.719 61.6445 915.719 60.9023C915.719 60.4727 915.672 59.9141 915.578 59.2266C915.492 58.5391 915.34 57.7734 915.121 56.9297L917.957 56.168C918.152 56.9336 918.297 57.6875 918.391 58.4297C918.492 59.1641 918.543 59.8672 918.543 60.5391C918.543 61.6328 918.387 62.5898 918.074 63.4102C917.762 64.2227 917.242 64.8594 916.516 65.3203C915.789 65.7734 914.797 66 913.539 66ZM915.484 50.7891L917.512 52.8164L915.484 54.8438L913.457 52.8164L915.484 50.7891ZM929.688 63.5156C929.688 65.2812 929.359 66.7578 928.703 67.9453C928.055 69.1406 927.121 70.0938 925.902 70.8047C924.691 71.5234 923.246 72.043 921.566 72.3633L920.5 69.4805C921.594 69.2695 922.562 68.9922 923.406 68.6484C924.258 68.3125 924.953 67.9062 925.492 67.4297C926.039 66.9609 926.402 66.4336 926.582 65.8477C926.363 65.8945 926.129 65.9375 925.879 65.9766C925.637 66.0078 925.418 66.0234 925.223 66.0234C923.762 66.0234 922.613 65.7031 921.777 65.0625C920.949 64.4141 920.535 63.3672 920.535 61.9219C920.535 61.2969 920.629 60.6602 920.816 60.0117C921.004 59.3555 921.277 58.7539 921.637 58.207C921.996 57.6523 922.449 57.207 922.996 56.8711C923.543 56.5273 924.176 56.3555 924.895 56.3555C925.746 56.3555 926.473 56.5586 927.074 56.9648C927.684 57.3711 928.18 57.9219 928.562 58.6172C928.945 59.3047 929.227 60.0742 929.406 60.9258C929.594 61.7695 929.688 62.6328 929.688 63.5156ZM925.199 62.8945C925.527 62.8945 925.836 62.875 926.125 62.8359C926.422 62.7891 926.676 62.7383 926.887 62.6836C926.855 62.3242 926.793 61.9531 926.699 61.5703C926.605 61.1875 926.48 60.8359 926.324 60.5156C926.168 60.1875 925.973 59.9258 925.738 59.7305C925.504 59.5273 925.215 59.4258 924.871 59.4258C924.473 59.4258 924.156 59.5703 923.922 59.8594C923.695 60.1406 923.535 60.4688 923.441 60.8438C923.355 61.2109 923.312 61.5312 923.312 61.8047C923.312 62.25 923.484 62.543 923.828 62.6836C924.18 62.8242 924.637 62.8945 925.199 62.8945ZM939.742 66C939.367 66 939.02 65.957 938.699 65.8711C938.379 65.7852 938.113 65.6758 937.902 65.543C937.715 66.707 937.328 67.7539 936.742 68.6836C936.156 69.6133 935.371 70.3906 934.387 71.0156C933.41 71.6484 932.234 72.1016 930.859 72.375L929.781 69.4922C930.938 69.2344 931.918 68.8906 932.723 68.4609C933.535 68.0391 934.152 67.4805 934.574 66.7852C934.996 66.0898 935.207 65.2227 935.207 64.1836C935.207 63.4805 935.102 62.6992 934.891 61.8398C934.688 60.9805 934.457 60.1719 934.199 59.4141L937.105 58.4531L937.785 61.0664C937.926 61.6055 938.133 62.0391 938.406 62.3672C938.688 62.6875 939.09 62.8477 939.613 62.8477H940.059V66H939.742ZM939.602 62.8477H940.434V66H939.602V62.8477ZM944.793 51.9141L946.727 53.8359L944.793 55.7812L942.859 53.8359L944.793 51.9141ZM940.832 51.9141L942.789 53.8359L940.832 55.7812L938.922 53.8359L940.832 51.9141ZM943.48 57.9258L946.223 57.5977L946.457 60.832C946.48 61.2383 946.562 61.5938 946.703 61.8984C946.852 62.2031 947.066 62.4375 947.348 62.6016C947.629 62.7656 947.988 62.8477 948.426 62.8477H948.66V66H948.402C947.871 66 947.395 65.9336 946.973 65.8008C946.551 65.668 946.18 65.4844 945.859 65.25C945.539 65.0156 945.262 64.7422 945.027 64.4297C944.566 64.9297 944.004 65.3164 943.34 65.5898C942.684 65.8633 941.984 66 941.242 66H940.129V62.8477H941.242C942.125 62.8477 942.738 62.6484 943.082 62.25C943.426 61.8516 943.598 61.2461 943.598 60.4336C943.598 59.9961 943.586 59.5703 943.562 59.1562C943.547 58.7344 943.52 58.3242 943.48 57.9258ZM952.176 55.0664C952.777 55.4414 953.324 55.793 953.816 56.1211C954.309 56.4492 954.75 56.7734 955.141 57.0938C955.539 57.4062 955.895 57.7305 956.207 58.0664C956.52 58.4023 956.797 58.7617 957.039 59.1445C957.281 59.5273 957.496 59.9531 957.684 60.4219C957.926 61.0078 958.16 61.4805 958.387 61.8398C958.613 62.1914 958.898 62.4492 959.242 62.6133C959.586 62.7695 960.039 62.8477 960.602 62.8477H960.93V66H960.602C959.68 66 958.898 65.8555 958.258 65.5664C957.625 65.2773 957.082 64.8008 956.629 64.1367C956.246 64.5898 955.816 64.9531 955.34 65.2266C954.871 65.5 954.297 65.6992 953.617 65.8242C952.938 65.9414 952.086 66 951.062 66H948.227V62.8477H951.051C951.918 62.8477 952.633 62.8086 953.195 62.7305C953.766 62.6445 954.191 62.4961 954.473 62.2852C954.754 62.0742 954.895 61.7695 954.895 61.3711C954.895 61.1289 954.77 60.8633 954.52 60.5742C954.27 60.2852 953.941 59.9844 953.535 59.6719C953.129 59.3594 952.684 59.0469 952.199 58.7344C951.723 58.4219 951.246 58.1133 950.77 57.8086C950.301 57.5039 949.879 57.2148 949.504 56.9414C949.199 56.6992 948.961 56.4023 948.789 56.0508C948.625 55.6914 948.543 55.3164 948.543 54.9258C948.543 54.4961 948.645 54.1016 948.848 53.7422C949.059 53.3828 949.367 53.1211 949.773 52.957L958.703 49.3125V52.418L952.176 55.0664ZM960.484 62.8477H961.363C962.207 62.8477 962.746 62.6445 962.98 62.2383C963.223 61.8242 963.344 61.2266 963.344 60.4453V49.5117H966.309V60.668C966.309 62.4258 965.918 63.7539 965.137 64.6523C964.355 65.5508 963.094 66 961.352 66H960.484V62.8477ZM972.531 49.5117V65.9883H969.555V49.5117H972.531ZM988.363 56.0508L990.391 58.0781L988.363 60.1055L986.336 58.0781L988.363 56.0508ZM988.504 68.918C989.66 68.918 990.57 68.7305 991.234 68.3555C991.898 67.9805 992.367 67.4766 992.641 66.8438C992.922 66.2109 993.062 65.5039 993.062 64.7227C993.062 63.8633 992.93 62.9883 992.664 62.0977C992.398 61.1992 992.109 60.3633 991.797 59.5898L994.703 58.4883L995.641 61.3242C995.781 61.7461 995.992 62.1055 996.273 62.4023C996.562 62.6992 996.977 62.8477 997.516 62.8477H997.961V66H997.562C997.195 66 996.879 65.9688 996.613 65.9062C996.355 65.8359 996.113 65.7188 995.887 65.5547C995.754 66.8672 995.387 68.0078 994.785 68.9766C994.191 69.9453 993.371 70.6953 992.324 71.2266C991.277 71.7578 990.004 72.0234 988.504 72.0234C986.816 72.0234 985.434 71.7031 984.355 71.0625C983.285 70.4297 982.492 69.5664 981.977 68.4727C981.469 67.3867 981.215 66.1602 981.215 64.793C981.215 63.8789 981.312 62.9375 981.508 61.9688C981.711 60.9922 981.996 60.0273 982.363 59.0742L985.023 60.1055C984.75 60.9102 984.52 61.707 984.332 62.4961C984.145 63.2773 984.051 64.0117 984.051 64.6992C984.051 65.4648 984.184 66.168 984.449 66.8086C984.723 67.4492 985.184 67.9609 985.832 68.3438C986.48 68.7266 987.371 68.918 988.504 68.918ZM997.516 62.8477H999.285V66H997.516V62.8477ZM1002.58 67.5703L1004.51 69.4922L1002.58 71.4375L1000.64 69.4922L1002.58 67.5703ZM998.617 67.5703L1000.57 69.4922L998.617 71.4375L996.707 69.4922L998.617 67.5703ZM1002.33 57.9258L1005.07 57.5977L1005.31 60.832C1005.33 61.2383 1005.41 61.5938 1005.55 61.8984C1005.7 62.2031 1005.92 62.4375 1006.2 62.6016C1006.48 62.7656 1006.84 62.8477 1007.28 62.8477H1007.51V66H1007.25C1006.72 66 1006.25 65.9336 1005.82 65.8008C1005.4 65.668 1005.03 65.4844 1004.71 65.25C1004.39 65.0156 1004.11 64.7422 1003.88 64.4297C1003.42 64.9297 1002.86 65.3164 1002.19 65.5898C1001.54 65.8633 1000.84 66 1000.09 66H998.98V62.8477H1000.09C1000.98 62.8477 1001.59 62.6484 1001.93 62.25C1002.28 61.8516 1002.45 61.2461 1002.45 60.4336C1002.45 59.9961 1002.44 59.5703 1002.41 59.1562C1002.4 58.7344 1002.37 58.3242 1002.33 57.9258ZM1014.72 59.6367C1014.38 59.6367 1014.08 59.75 1013.8 59.9766C1013.54 60.2031 1013.3 60.4805 1013.09 60.8086C1012.89 61.1289 1012.71 61.4414 1012.57 61.7461C1012.8 61.9648 1013.02 62.1562 1013.23 62.3203C1013.45 62.4766 1013.65 62.6094 1013.84 62.7188C1014.13 62.8828 1014.39 63 1014.64 63.0703C1014.89 63.1406 1015.11 63.1758 1015.29 63.1758C1015.74 63.1758 1016.06 63.0273 1016.25 62.7305C1016.46 62.4336 1016.56 62.0742 1016.56 61.6523C1016.56 61.0977 1016.39 60.625 1016.07 60.2344C1015.74 59.8359 1015.29 59.6367 1014.72 59.6367ZM1015.28 66.2695C1014.74 66.2695 1014.23 66.1914 1013.75 66.0352C1013.26 65.8789 1012.79 65.6602 1012.33 65.3789C1011.88 65.0977 1011.42 64.7734 1010.96 64.4062C1010.67 64.7109 1010.38 64.9844 1010.08 65.2266C1009.78 65.4609 1009.44 65.6484 1009.05 65.7891C1008.66 65.9297 1008.16 66 1007.57 66H1007.08V62.8477H1007.51C1007.93 62.8477 1008.29 62.6992 1008.6 62.4023C1008.91 62.1055 1009.21 61.7227 1009.5 61.2539C1009.79 60.7773 1010.09 60.2773 1010.39 59.7539C1010.71 59.2227 1011.05 58.7188 1011.44 58.2422C1011.82 57.7656 1012.27 57.3789 1012.79 57.082C1013.3 56.7852 1013.91 56.6367 1014.62 56.6367C1015.59 56.6367 1016.42 56.8672 1017.12 57.3281C1017.83 57.7812 1018.38 58.3828 1018.76 59.1328C1019.14 59.8828 1019.34 60.7031 1019.34 61.5938C1019.34 62.5 1019.18 63.3047 1018.88 64.0078C1018.57 64.7109 1018.12 65.2656 1017.52 65.6719C1016.93 66.0703 1016.18 66.2695 1015.28 66.2695ZM1021.94 49.5117H1024.9V60.4336C1024.9 61.3164 1025.04 61.9414 1025.3 62.3086C1025.57 62.668 1026.09 62.8477 1026.86 62.8477H1027.14V66H1026.86C1025.16 66 1023.92 65.5586 1023.12 64.6758C1022.33 63.793 1021.94 62.4531 1021.94 60.6562V49.5117ZM1026.7 62.8477H1028.07V66H1026.7V62.8477ZM1032.47 50.8945L1034.41 52.8164L1032.47 54.7617L1030.54 52.8164L1032.47 50.8945ZM1028.51 50.8945L1030.47 52.8164L1028.51 54.7617L1026.6 52.8164L1028.51 50.8945ZM1029.11 66H1027.81V62.8477H1029.09C1029.84 62.8477 1030.4 62.7109 1030.75 62.4375C1031.11 62.1562 1031.29 61.6445 1031.29 60.9023C1031.29 60.4727 1031.24 59.9141 1031.15 59.2266C1031.06 58.5391 1030.91 57.7734 1030.69 56.9297L1033.53 56.168C1033.72 56.9336 1033.87 57.6875 1033.96 58.4297C1034.06 59.1641 1034.11 59.8672 1034.11 60.5391C1034.11 61.6328 1033.96 62.5898 1033.64 63.4102C1033.33 64.2227 1032.81 64.8594 1032.09 65.3203C1031.36 65.7734 1030.37 66 1029.11 66ZM1052.12 61.7109C1052.12 61.3516 1052.04 61.0156 1051.88 60.7031C1051.72 60.3906 1051.5 60.1406 1051.22 59.9531C1050.94 59.7656 1050.61 59.6719 1050.23 59.6719C1049.95 59.6719 1049.7 59.7461 1049.48 59.8945C1049.25 60.0352 1049.05 60.2266 1048.87 60.4688C1048.7 60.7031 1048.54 60.9648 1048.41 61.2539C1048.28 61.5352 1048.16 61.8164 1048.07 62.0977C1048.46 62.2695 1048.84 62.4336 1049.2 62.5898C1049.56 62.7383 1049.9 62.8594 1050.2 62.9531C1050.51 63.0469 1050.77 63.0938 1050.98 63.0938C1051.39 63.0938 1051.68 62.957 1051.86 62.6836C1052.04 62.4023 1052.12 62.0781 1052.12 61.7109ZM1054.81 60.6094C1054.86 60.9531 1054.97 61.2969 1055.12 61.6406C1055.28 61.9844 1055.48 62.2734 1055.71 62.5078C1055.95 62.7344 1056.21 62.8477 1056.52 62.8477H1056.82V66H1056.52C1056.03 66 1055.54 65.8867 1055.05 65.6602C1054.58 65.4258 1054.19 65.1328 1053.89 64.7812C1053.57 65.25 1053.17 65.6016 1052.7 65.8359C1052.24 66.0703 1051.65 66.1875 1050.93 66.1875C1050.5 66.1875 1050.04 66.1133 1049.56 65.9648C1049.08 65.8164 1048.61 65.6484 1048.15 65.4609C1047.7 65.2656 1047.29 65.0938 1046.91 64.9453C1046.54 64.7969 1046.23 64.7227 1046.01 64.7227C1045.8 64.7227 1045.64 64.8203 1045.5 65.0156C1045.38 65.2031 1045.28 65.4805 1045.2 65.8477C1045.13 66.207 1045.08 66.6406 1045.05 67.1484C1045.02 67.6562 1045.01 68.2227 1045.01 68.8477C1045.01 69.4883 1045.02 70.1055 1045.05 70.6992C1045.07 71.3008 1045.1 71.8398 1045.13 72.3164C1045.17 72.793 1045.2 73.1758 1045.21 73.4648H1042.23C1042.19 72.6445 1042.15 71.8516 1042.12 71.0859C1042.09 70.3281 1042.07 69.5898 1042.07 68.8711C1042.07 67.8711 1042.11 66.957 1042.18 66.1289C1042.25 65.3008 1042.39 64.5742 1042.6 63.9492C1042.82 63.3164 1043.14 62.8008 1043.57 62.4023C1044.01 62.0039 1044.59 61.7422 1045.3 61.6172C1045.51 60.9375 1045.76 60.3008 1046.05 59.707C1046.36 59.1133 1046.71 58.5859 1047.12 58.125C1047.53 57.6641 1047.98 57.3047 1048.49 57.0469C1049.01 56.7812 1049.57 56.6484 1050.18 56.6484C1051 56.6484 1051.73 56.8125 1052.37 57.1406C1053.02 57.4609 1053.55 57.918 1053.98 58.5117C1054.4 59.0977 1054.68 59.7969 1054.81 60.6094ZM1056.37 62.8477H1057.2V66H1056.37V62.8477ZM1061.56 51.9141L1063.49 53.8359L1061.56 55.7812L1059.62 53.8359L1061.56 51.9141ZM1057.6 51.9141L1059.55 53.8359L1057.6 55.7812L1055.69 53.8359L1057.6 51.9141ZM1060.25 57.9258L1062.99 57.5977L1063.22 60.832C1063.25 61.2383 1063.33 61.5938 1063.47 61.8984C1063.62 62.2031 1063.83 62.4375 1064.11 62.6016C1064.39 62.7656 1064.75 62.8477 1065.19 62.8477H1065.43V66H1065.17C1064.64 66 1064.16 65.9336 1063.74 65.8008C1063.32 65.668 1062.95 65.4844 1062.62 65.25C1062.3 65.0156 1062.03 64.7422 1061.79 64.4297C1061.33 64.9297 1060.77 65.3164 1060.11 65.5898C1059.45 65.8633 1058.75 66 1058.01 66H1056.89V62.8477H1058.01C1058.89 62.8477 1059.5 62.6484 1059.85 62.25C1060.19 61.8516 1060.36 61.2461 1060.36 60.4336C1060.36 59.9961 1060.35 59.5703 1060.33 59.1562C1060.31 58.7344 1060.29 58.3242 1060.25 57.9258ZM1079.38 66C1078.68 66 1078.08 65.8555 1077.58 65.5664C1077.08 65.2695 1076.67 64.8945 1076.35 64.4414C1075.94 64.9102 1075.45 65.2891 1074.88 65.5781C1074.31 65.8594 1073.69 66 1073.02 66C1072.21 66 1071.54 65.8633 1071 65.5898C1070.48 65.3086 1070.05 64.9336 1069.73 64.4648C1069.3 64.9414 1068.78 65.3164 1068.16 65.5898C1067.53 65.8633 1066.75 66 1065.81 66H1064.99V62.8477H1065.84C1066.72 62.8477 1067.37 62.6875 1067.79 62.3672C1068.21 62.0391 1068.43 61.4531 1068.43 60.6094C1068.43 60.4844 1068.42 60.2969 1068.4 60.0469C1068.39 59.7969 1068.37 59.5156 1068.34 59.2031C1068.33 58.8906 1068.31 58.5859 1068.29 58.2891L1071.03 57.9492L1071.27 60.9258C1071.3 61.2852 1071.38 61.6133 1071.51 61.9102C1071.65 62.1992 1071.84 62.4297 1072.09 62.6016C1072.35 62.7656 1072.67 62.8477 1073.04 62.8477C1073.73 62.8477 1074.22 62.6562 1074.51 62.2734C1074.8 61.8828 1074.94 61.3281 1074.94 60.6094C1074.94 60.4922 1074.93 60.3086 1074.92 60.0586C1074.91 59.8008 1074.89 59.5156 1074.87 59.2031C1074.85 58.8906 1074.82 58.5859 1074.8 58.2891L1077.54 57.9492L1077.79 60.9258C1077.81 61.2695 1077.88 61.5898 1077.99 61.8867C1078.11 62.1758 1078.28 62.4102 1078.5 62.5898C1078.73 62.7617 1079.02 62.8477 1079.37 62.8477C1079.7 62.8477 1079.96 62.7539 1080.16 62.5664C1080.35 62.3711 1080.49 62.1055 1080.58 61.7695C1080.66 61.4336 1080.71 61.0547 1080.71 60.6328C1080.71 60.3516 1080.69 59.9688 1080.66 59.4844C1080.64 58.9922 1080.61 58.5039 1080.57 58.0195L1083.31 57.6797L1083.55 60.9258C1083.58 61.332 1083.66 61.6797 1083.8 61.9688C1083.95 62.25 1084.16 62.4688 1084.43 62.625C1084.71 62.7734 1085.05 62.8477 1085.46 62.8477H1085.79V66H1085.49C1084.75 66 1084.1 65.8711 1083.54 65.6133C1083 65.3477 1082.57 64.9844 1082.28 64.5234C1081.96 64.9531 1081.57 65.3086 1081.11 65.5898C1080.64 65.8633 1080.07 66 1079.38 66ZM1085.34 62.8477H1086.27V66H1085.34V62.8477ZM1089.6 67.5703L1091.54 69.4922L1089.6 71.4375L1087.67 69.4922L1089.6 67.5703ZM1085.64 67.5703L1087.6 69.4922L1085.64 71.4375L1083.73 69.4922L1085.64 67.5703ZM1089.34 57.9258L1092.09 57.5977L1092.32 60.832C1092.34 61.2383 1092.43 61.5938 1092.57 61.8984C1092.71 62.2031 1092.93 62.4375 1093.21 62.6016C1093.49 62.7656 1093.85 62.8477 1094.29 62.8477H1094.52V66H1094.27C1093.73 66 1093.26 65.9336 1092.84 65.8008C1092.41 65.668 1092.04 65.4844 1091.72 65.25C1091.4 65.0156 1091.12 64.7422 1090.89 64.4297C1090.43 64.9297 1089.87 65.3164 1089.2 65.5898C1088.55 65.8633 1087.85 66 1087.11 66H1085.99V62.8477H1087.11C1087.99 62.8477 1088.6 62.6484 1088.95 62.25C1089.29 61.8516 1089.46 61.2461 1089.46 60.4336C1089.46 59.9961 1089.45 59.5703 1089.43 59.1562C1089.41 58.7344 1089.38 58.3242 1089.34 57.9258ZM1102.13 66C1101.32 66 1100.64 65.8633 1100.11 65.5898C1099.59 65.3086 1099.16 64.9336 1098.84 64.4648C1098.41 64.9414 1097.89 65.3164 1097.27 65.5898C1096.64 65.8633 1095.86 66 1094.92 66H1094.1V62.8477H1094.95C1095.83 62.8477 1096.48 62.6875 1096.9 62.3672C1097.32 62.0391 1097.54 61.4531 1097.54 60.6094C1097.54 60.4844 1097.53 60.2969 1097.51 60.0469C1097.5 59.7969 1097.48 59.5156 1097.45 59.2031C1097.44 58.8906 1097.42 58.5859 1097.39 58.2891L1100.14 57.9492L1100.38 60.9258C1100.41 61.2852 1100.48 61.6133 1100.62 61.9102C1100.76 62.1992 1100.95 62.4297 1101.2 62.6016C1101.46 62.7656 1101.78 62.8477 1102.15 62.8477C1102.84 62.8477 1103.33 62.6562 1103.62 62.2734C1103.91 61.8828 1104.05 61.3281 1104.05 60.6094C1104.05 60.4922 1104.04 60.3086 1104.03 60.0586C1104.02 59.8008 1104 59.5156 1103.98 59.2031C1103.96 58.8906 1103.93 58.5859 1103.91 58.2891L1106.65 57.9492L1106.9 60.9258C1106.92 61.2617 1106.99 61.5781 1107.1 61.875C1107.21 62.1719 1107.37 62.4102 1107.59 62.5898C1107.82 62.7617 1108.11 62.8477 1108.46 62.8477C1108.79 62.8477 1109.05 62.7539 1109.24 62.5664C1109.44 62.3711 1109.58 62.1172 1109.66 61.8047C1109.75 61.4844 1109.79 61.1367 1109.79 60.7617C1109.79 60.2305 1109.73 59.625 1109.59 58.9453C1109.46 58.2578 1109.32 57.6172 1109.17 57.0234L1112.01 56.2734C1112.2 56.9688 1112.34 57.668 1112.44 58.3711C1112.54 59.0664 1112.59 59.7617 1112.59 60.457C1112.59 61.457 1112.46 62.3789 1112.21 63.2227C1111.95 64.0586 1111.52 64.7305 1110.93 65.2383C1110.34 65.7383 1109.52 65.9922 1108.49 66C1107.77 66 1107.17 65.8555 1106.68 65.5664C1106.18 65.2695 1105.78 64.8945 1105.46 64.4414C1105.05 64.9102 1104.56 65.2891 1103.99 65.5781C1103.42 65.8594 1102.8 66 1102.13 66Z" fill="white"/>
</g>
<defs>
<linearGradient id="paint0_linear_1_8" x1="1440" y1="0" x2="1440" y2="220" gradientUnits="userSpaceOnUse">
<stop stop-color="#29FBFA"/>
<stop offset="1" stop-color="#0989FF"/>
</linearGradient>
<linearGradient id="paint1_linear_1_8" x1="1440" y1="-6.10352e-05" x2="1440" y2="212.708" gradientUnits="userSpaceOnUse">
<stop stop-color="#29FBFA"/>
<stop offset="1" stop-color="#B5D5F4"/>
</linearGradient>
<clipPath id="clip0_1_8">
<rect width="1440" height="220" fill="white" transform="matrix(-1 0 0 -1 1440 220)"/>
</clipPath>
</defs>
</svg>
